{"asset":{"version":"2.0","generator":"Hockey Manager original player authoring script","copyright":"Original project asset; no third-party models or animations."},"scene":0,"scenes":[{"name":"skater","nodes":[0,15]},{"name":"goalie","nodes":[0,16]},{"name":"goalieR","nodes":[0,17]}],"nodes":[{"name":"pelvis","matrix":[1,0,0,0,0,1,0,0,0,0,1,0,0,0.84,0,1],"children":[1,6,8]},{"name":"chest","matrix":[1,0,0,0,0,1,0,0,0,0,1,0,0,0.36,0,1],"children":[2,4,10]},{"name":"armL","matrix":[1,0,0,0,0,-0.9178570359601426,-0.3969111506854671,0,0,0.3969111506854671,-0.9178570359601426,0,0,0.19999999999999996,-0.34,1],"children":[3]},{"name":"forearmL","matrix":[0.6823182503600114,-0.6710042216324467,0.29016398773294994,0,0.7310552682428689,0.6262706068569504,-0.27081972188408665,0,0,0.3969111506854671,0.9178570359601426,0,0,0.40311288741492746,1.1102230246251565e-16,1],"children":[11]},{"name":"armR","matrix":[1,0,0,0,0,-0.9178570359601426,0.3969111506854671,0,0,-0.3969111506854671,-0.9178570359601426,0,0,0.19999999999999996,0.34,1],"children":[5]},{"name":"forearmR","matrix":[0.6823182503600114,-0.6710042216324467,-0.29016398773294994,0,0.7310552682428689,0.6262706068569504,0.27081972188408665,0,0,-0.3969111506854671,0.9178570359601426,0,0,0.40311288741492746,-1.1102230246251565e-16,1],"children":[12]},{"name":"thighL","matrix":[0.8133217311479733,0.576282468095763,0.08003923167996711,0,0.5818141985569479,-0.8055888903096202,-0.11188734587633618,0,0,0.13756837127468774,-0.9904922731777513,0,-0.1,0.06000000000000005,-0.18,1],"children":[7]},{"name":"shinL","matrix":[0.4575684508152737,0.8878564045784725,-0.04839543023362981,0,-0.8870507314014052,0.45203955675674706,-0.0938149191088247,0,-0.06141752794391922,0.08585594898521215,0.9944127127531637,0,0,0.44687805943008657,0,1],"children":[13]},{"name":"thighR","matrix":[0.8133217311479733,0.576282468095763,-0.08003923167996711,0,0.5818141985569479,-0.8055888903096202,0.11188734587633618,0,0,-0.13756837127468774,-0.9904922731777513,0,-0.1,0.06000000000000005,0.18,1],"children":[9]},{"name":"shinR","matrix":[0.4575684508152737,0.8878564045784725,0.04839543023362981,0,-0.8870507314014052,0.45203955675674706,0.0938149191088247,0,0.06141752794391922,-0.08585594898521215,0.9944127127531637,0,0,0.44687805943008657,0,1],"children":[14]},{"name":"head","matrix":[1,0,0,0,0,1,0,0,0,0,1,0,0.02,0.47,0,1]},{"name":"handL","matrix":[0.6823182503600114,0.7310552682428689,0,0,0.7310552682428689,-0.6823182503600111,0,0,0,0,-1,0,1.1102230246251565e-16,0.41036569057366384,0,1]},{"name":"handR","matrix":[0.6823182503600114,0.7310552682428689,0,0,0.7310552682428689,-0.6823182503600111,0,0,0,0,-1,0,1.1102230246251565e-16,0.41036569057366384,0,1]},{"name":"footL","matrix":[0.8887178269992521,-0.4584546040490022,0,0,-0.4582162600744584,-0.8882557953449419,0.03224129401095798,0,-0.014781169679821208,-0.02865341275306258,-0.9994801143396995,0,0,0.348998567332303,-2.7755575615628914e-17,1]},{"name":"footR","matrix":[0.8887178269992521,-0.4584546040490022,0,0,-0.4582162600744584,-0.8882557953449419,-0.03224129401095798,0,0.014781169679821208,0.02865341275306258,-0.9994801143396995,0,0,0.348998567332303,2.7755575615628914e-17,1]},{"name":"skater","mesh":0,"skin":0},{"name":"goalie","mesh":1,"skin":0},{"name":"goalieR","mesh":2,"skin":0}],"skins":[{"skeleton":0,"joints":[0,1,2,3,4,5,6,7,8,9,10,11,12,13,14],"inverseBindMatrices":21}],"meshes":[{"name":"skater","primitives":[{"attributes":{"POSITION":0,"NORMAL":1,"TEXCOORD_0":2,"JOINTS_0":3,"WEIGHTS_0":4,"COLOR_0":5},"indices":6,"material":0}]},{"name":"goalie","primitives":[{"attributes":{"POSITION":7,"NORMAL":8,"TEXCOORD_0":9,"JOINTS_0":10,"WEIGHTS_0":11,"COLOR_0":12},"indices":13,"material":0}]},{"name":"goalieR","primitives":[{"attributes":{"POSITION":14,"NORMAL":15,"TEXCOORD_0":16,"JOINTS_0":17,"WEIGHTS_0":18,"COLOR_0":19},"indices":20,"material":0}]}],"materials":[{"name":"Team and equipment","pbrMetallicRoughness":{"baseColorFactor":[1,1,1,1],"metallicFactor":0,"roughnessFactor":0.87},"doubleSided":true}],"buffers":[{"byteLength":480532,"uri":"data:application/octet-stream;base64,"}],"bufferViews":[{"buffer":0,"byteOffset":0,"byteLength":23520},{"buffer":0,"byteOffset":23520,"byteLength":23520},{"buffer":0,"byteOffset":47040,"byteLength":15680},{"buffer":0,"byteOffset":62720,"byteLength":15680},{"buffer":0,"byteOffset":78400,"byteLength":31360},{"buffer":0,"byteOffset":109760,"byteLength":23520},{"buffer":0,"byteOffset":133280,"byteLength":15660},{"buffer":0,"byteOffset":148940,"byteLength":26088},{"buffer":0,"byteOffset":175028,"byteLength":26088},{"buffer":0,"byteOffset":201116,"byteLength":17392},{"buffer":0,"byteOffset":218508,"byteLength":17392},{"buffer":0,"byteOffset":235900,"byteLength":34784},{"buffer":0,"byteOffset":270684,"byteLength":26088},{"buffer":0,"byteOffset":296772,"byteLength":17484},{"buffer":0,"byteOffset":314256,"byteLength":26088},{"buffer":0,"byteOffset":340344,"byteLength":26088},{"buffer":0,"byteOffset":366432,"byteLength":17392},{"buffer":0,"byteOffset":383824,"byteLength":17392},{"buffer":0,"byteOffset":401216,"byteLength":34784},{"buffer":0,"byteOffset":436000,"byteLength":26088},{"buffer":0,"byteOffset":462088,"byteLength":17484},{"buffer":0,"byteOffset":479572,"byteLength":960}],"accessors":[{"bufferView":0,"componentType":5126,"count":1960,"type":"VEC3","min":[-0.25,0.0025000000000000126,-0.64],"max":[0.425,1.915,0.64]},{"bufferView":1,"componentType":5126,"count":1960,"type":"VEC3","min":[-1,-1,-1],"max":[1,1,1]},{"bufferView":2,"componentType":5126,"count":1960,"type":"VEC2"},{"bufferView":3,"componentType":5123,"count":1960,"type":"VEC4"},{"bufferView":4,"componentType":5126,"count":1960,"type":"VEC4"},{"bufferView":5,"componentType":5126,"count":1960,"type":"VEC3","min":[0.06,0.1,0.15],"max":[1,1,1]},{"bufferView":6,"componentType":5123,"count":7830,"type":"SCALAR"},{"bufferView":7,"componentType":5126,"count":2174,"type":"VEC3","min":[-0.28,0.0025000000000000126,-0.74],"max":[0.44699999999999995,1.915,0.6365000000000001]},{"bufferView":8,"componentType":5126,"count":2174,"type":"VEC3","min":[-1,-1,-1],"max":[1,1,1]},{"bufferView":9,"componentType":5126,"count":2174,"type":"VEC2"},{"bufferView":10,"componentType":5123,"count":2174,"type":"VEC4"},{"bufferView":11,"componentType":5126,"count":2174,"type":"VEC4"},{"bufferView":12,"componentType":5126,"count":2174,"type":"VEC3","min":[0.06,0.1,0.15],"max":[1,1,1]},{"bufferView":13,"componentType":5123,"count":8742,"type":"SCALAR"},{"bufferView":14,"componentType":5126,"count":2174,"type":"VEC3","min":[-0.28,0.0025000000000000126,-0.6365000000000001],"max":[0.44699999999999995,1.915,0.74]},{"bufferView":15,"componentType":5126,"count":2174,"type":"VEC3","min":[-1,-1,-1],"max":[1,1,1]},{"bufferView":16,"componentType":5126,"count":2174,"type":"VEC2"},{"bufferView":17,"componentType":5123,"count":2174,"type":"VEC4"},{"bufferView":18,"componentType":5126,"count":2174,"type":"VEC4"},{"bufferView":19,"componentType":5126,"count":2174,"type":"VEC3","min":[0.06,0.1,0.15],"max":[1,1,1]},{"bufferView":20,"componentType":5123,"count":8742,"type":"SCALAR"},{"bufferView":21,"componentType":5126,"count":15,"type":"MAT4"}]}
